<?xml version="1.0" encoding="UTF-8" standalone="no"?>
<!-- Created with Inkscape (http://www.inkscape.org/) -->

<svg
   version="1.1"
   id="svg1"
   width="682.66663"
   height="512"
   viewBox="0 0 682.66663 512"
   xmlns="http://www.w3.org/2000/svg"
   xmlns:svg="http://www.w3.org/2000/svg">
  <defs
     id="defs1" />
  <g
     id="g1"
     transform="translate(-682.66665,-792.2037)">
    <g
       id="group-R5">
      <g
         id="g40">
        <g
           id="g41"
           transform="translate(-3.2244319e-6,24.203641)">
          <path
             id="path3"
             d="m 6240,26880 c 0,265.1 214.9,480 480,480 h 1920 c 265.1,0 480,-214.9 480,-480 v -1795.6 c 0,0 -360,-284.4 -1440,-284.4 -1080,0 -1440,284.4 -1440,284.4 V 26880"
             style="fill:#acbdc4;fill-opacity:1;fill-rule:nonzero;stroke:none"
             transform="matrix(0.13333333,0,0,-0.13333333,0,4437.3333)" />
          <path
             id="path4"
             d="m 10080,25280 h 160 c 0,-598.1 -664.62,-1600 -2560,-1600 -1895.38,0 -2560,1001.9 -2560,1600 0,132.7 17.32,266.2 101.64,354.7 97.15,102 227.2,92 306.49,77.8 52.48,-9.4 118.57,-28.3 180.75,-46.1 29.61,-8.5 58.35,-16.7 84.29,-23.5 91.59,-24.1 186.51,-42.9 286.83,-42.9 v -220.6 c 56.42,-11.8 110.48,-19.4 160,-19.4 179.33,0 160,-520 160,-520 h 1920 v 2520 h 400 l 400,-400 v -1520 c 167.56,0 326.81,33.2 465.71,62.2 292.16,61 494.29,103.1 494.29,-222.2"
             style="fill:#536f7f;fill-opacity:1;fill-rule:nonzero;stroke:none"
             transform="matrix(0.13333333,0,0,-0.13333333,0,4437.3333)" />
          <path
             id="path5"
             d="m 6240,24871.7 v 640 c 212.26,-94.7 654.92,-231.7 1440,-231.7 785.08,0 1227.74,137 1440,231.7 v -640 C 8907.74,24777 8465.08,24640 7680,24640 c -785.08,0 -1227.74,137 -1440,231.7"
             style="fill:#f2514f;fill-opacity:1;fill-rule:nonzero;stroke:none"
             transform="matrix(0.13333333,0,0,-0.13333333,0,4437.3333)" />
          <path
             id="path6"
             d="m 8320,24674.8 v 640 c 399.62,46.8 654.18,131.8 800,196.9 v -640 c -145.82,-65.1 -400.38,-150.1 -800,-196.9"
             style="fill:#d9225b;fill-opacity:1;fill-rule:nonzero;stroke:none"
             transform="matrix(0.13333333,0,0,-0.13333333,0,4437.3333)" />
          <path
             id="path7"
             d="m 6720,27520 c -353.46,0 -640,-286.5 -640,-640 v -1920 c 0,0 91.97,-73.6 320,-150.2 V 26880 c 0,176.7 143.27,320 320,320 h 1920 c 176.73,0 320,-143.3 320,-320 v -2070.2 c 228.03,76.6 320,150.2 320,150.2 v 320 c 139.68,0 264.76,26.2 368.17,53.4 45.79,12 83.33,22.9 115.88,32.3 48.89,14.2 86.55,25.1 124.08,31.8 8.6,1.5 15.58,2.5 21.17,3.1 4.57,-18.2 10.7,-54.4 10.7,-120.6 0,-264 -232.14,-799.5 -1015.39,-1088.6 l 110.78,-300.2 c 885.11,326.7 1224.61,967 1224.61,1388.8 0,132.7 -17.3,266.2 -101.6,354.7 -97.2,102 -227.24,92 -306.52,77.8 -52.49,-9.4 -118.58,-28.3 -180.76,-46.1 -29.61,-8.5 -58.35,-16.7 -84.29,-23.5 -91.59,-24.1 -186.51,-42.9 -286.83,-42.9 v 1280 c 0,353.5 -286.54,640 -640,640 H 6720"
             style="fill:#2f444e;fill-opacity:1;fill-rule:evenodd;stroke:none"
             transform="matrix(0.13333333,0,0,-0.13333333,0,4437.3333)" />
        </g>
      </g>
      <g
         id="g42"
         transform="translate(201.69698,-96.814552)">
        <path
           id="path8"
           d="m 18720,25120 h -480 v -480 h -640 v 480 h -2240 v -480 h -640 v 480 h -480 v 800 c 0,265.1 214.9,480 480,480 h 1120 l 640,320 v -160 c 0,-265.1 214.9,-480 480,-480 265.1,0 480,214.9 480,480 v 480 c 883.7,0 1600,-716.3 1600,-1600 0,-176.7 -143.3,-320 -320,-320"
           style="fill:#acbdc4;fill-opacity:1;fill-rule:nonzero;stroke:none"
           transform="matrix(0.13333333,0,0,-0.13333333,0,4437.3333)" />
        <path
           id="path9"
           d="m 17378.5,26080 c 141.4,125.4 141.5,268.3 141.5,420 0,93.8 -27.8,184.3 -80,269.4 v 270.6 c 883.7,0 1600,-716.3 1600,-1600 0,-176.7 -143.3,-320 -320,-320 h -160 v -160 h -160 v 160 l -480,400 -480,-400 v -160 h -1920 v 160 l -480,400 -480,-400 v -160 h -480 v 960 c 0,353.5 286.5,640 640,640 h 1082.2 l 837.8,418.9 V 26560 c 0,-176.7 143.3,-320 320,-320 v -320 c -321.1,0 -586.9,236.4 -632.9,544.6 L 15877.8,26240 H 14720 c -176.7,0 -320,-143.3 -320,-320 0,-176.7 573.1,-320 1280,-320 736.8,0 1376.6,194.5 1698.5,480"
           style="fill:#536f7f;fill-opacity:1;fill-rule:nonzero;stroke:none"
           transform="matrix(0.13333333,0,0,-0.13333333,0,4437.3333)" />
        <path
           id="path10"
           d="m 15360,24960 c 0,-176.7 -143.3,-320 -320,-320 -176.7,0 -320,143.3 -320,320 0,176.7 143.3,320 320,320 176.7,0 320,-143.3 320,-320 z m 320,0 c 0,-353.5 -286.5,-640 -640,-640 -353.5,0 -640,286.5 -640,640 0,353.5 286.5,640 640,640 353.5,0 640,-286.5 640,-640 z m 2560,0 c 0,-176.7 -143.3,-320 -320,-320 -176.7,0 -320,143.3 -320,320 0,176.7 143.3,320 320,320 176.7,0 320,-143.3 320,-320 z m -800,2240 h -160 v -640 c 0,-176.7 -143.3,-320 -320,-320 -176.7,0 -320,143.3 -320,320 v 40 l -313,-135.1 c 45.9,-308.3 311.8,-544.9 633,-544.9 353.5,0 640,286.5 640,640 v 311.2 c 720,-79.6 1280,-690 1280,-1431.2 0,-88.4 -71.6,-160 -160,-160 h -245.6 c -110.7,191.3 -317.5,320 -554.4,320 -353.5,0 -640,-286.5 -640,-640 0,-353.5 286.5,-640 640,-640 353.5,0 640,286.5 640,640 h 160 c 265.1,0 480,214.9 480,480 0,972 -788,1760 -1760,1760"
           style="fill:#2f444e;fill-opacity:1;fill-rule:evenodd;stroke:none"
           transform="matrix(0.13333333,0,0,-0.13333333,0,4437.3333)" />
      </g>
      <g
         id="g43"
         transform="translate(32.271519,48.407275)">
        <path
           id="path11"
           d="m 24912,25904.1 c 15.9,0.6 31.9,0.9 48,0.9 706.9,0 1280,-573.1 1280,-1280 0,-98.9 -11.2,-195.1 -32.4,-287.6 L 26880,23665 c 353.5,0 640,-271.5 640,-625 h -3840 v 305 c 0,176.7 143.3,320 320,320 h 113.3 c -265.7,234.5 -433.3,577.7 -433.3,960 0,576.8 381.5,1064.5 906,1224.5 l -904.8,2051.9 292.6,130.5 938.2,-2127.8"
           style="fill:#536f7f;fill-opacity:1;fill-rule:nonzero;stroke:none"
           transform="matrix(0.13333333,0,0,-0.13333333,0,4437.3333)" />
        <path
           id="path12"
           d="m 24960,25585 c -157.9,0 -313.3,-38.9 -452.5,-113.4 -139.3,-74.4 -258,-182 -345.7,-313.2 -87.7,-131.3 -141.7,-282.2 -157.2,-439.3 -15.4,-157.1 8.1,-315.6 68.5,-461.5 60.4,-145.8 155.8,-274.5 277.9,-374.7 122,-100.1 266.9,-168.6 421.7,-199.5 154.8,-30.7 314.9,-22.9 466,22.9 151,45.9 288.5,128.2 400.1,239.9 L 24960,24625 v 960"
           style="fill:#acbdc4;fill-opacity:1;fill-rule:nonzero;stroke:none"
           transform="matrix(0.13333333,0,0,-0.13333333,0,4437.3333)" />
        <path
           id="path13"
           d="m 24960,24305 c 176.7,0 320,143.3 320,320 0,176.7 -143.3,320 -320,320 -176.7,0 -320,-143.3 -320,-320 0,-176.7 143.3,-320 320,-320 z m 311.9,1570.1 c 556.2,-139.7 968.1,-633.9 968.1,-1235.1 0,-79.6 -7.2,-167.8 -21.1,-243.6 l 714.3,-716.4 h 266.8 c 176.7,0 320,-142.7 320,-320 v -320 h -320 v 320 h -400 l -934.2,936.7 23.1,89 c 20.3,77.7 31.1,169.8 31.1,254.3 0,473.3 -340.7,856.9 -789.6,937.5 l -83.6,15 -1078,2437.4 292.5,130.1 1010.6,-2284.9"
           style="fill:#2f444e;fill-opacity:1;fill-rule:nonzero;stroke:none"
           transform="matrix(0.13333333,0,0,-0.13333333,0,4437.3333)" />
      </g>
      <g
         id="g44"
         transform="translate(-96.81455,40.339395)">
        <path
           id="path14"
           d="m 5280,14880 c 0,530.2 429.8,960 960,960 h 114.48 c 184.68,0 363.66,63.9 506.59,180.8 L 7520,16559.9 V 17720 l 1920,-280.1 V 14840 H 5280 v 40"
           style="fill:#acbdc4;fill-opacity:1;fill-rule:nonzero;stroke:none"
           transform="matrix(0.13333333,0,0,-0.13333333,0,4437.3333)" />
        <path
           id="path15"
           d="m 6720,15359.9 c 1237.12,0 2240,859.7 2240,1920 h 320 v -2240 h 320 v -320 H 5120 v 320 c 0,476.9 347.68,872.6 803.37,947.3 50.97,8.4 103.29,12.7 156.63,12.7 h 320 c 176.73,0 320,143.3 320,320 h 320 c 0,-353.4 -286.54,-640 -640,-640 h -320 c -160,0 -320,-71.6 -320,-160 0,-88.3 71.63,-160 160,-160 h 800"
           style="fill:#536f7f;fill-opacity:1;fill-rule:nonzero;stroke:none"
           transform="matrix(0.13333333,0,0,-0.13333333,0,4437.3333)" />
        <path
           id="path16"
           d="m 9624.13,18164.4 c -0.55,-1.8 -1.38,-4.7 -2.4,-9.2 -2.96,-12.7 -6.07,-31.2 -8.92,-55.9 -5.7,-49.5 -9.26,-113.7 -11.26,-187.9 -2.13,-78.6 -2.44,-163.7 -2.26,-248.6 65.75,67.2 132.51,137.2 188.03,199.3 61.21,68.4 98.61,116 111.24,137.8 44.18,76.6 17.96,174.4 -58.56,218.6 -75.01,43.3 -170.51,19 -215.87,-54.1 z M 9600,17212.1 c 9.78,9.5 20.78,20.2 32.8,32 49.57,48.5 116.73,115 186.82,186.4 69.9,71.2 143.7,148.4 206.18,218.2 59,65.9 118.3,136.6 149.9,191.2 132.5,229.6 53.9,523.2 -175.7,655.7 -229.58,132.6 -523.14,53.9 -655.69,-175.7 -18.32,-31.7 -28.25,-66.2 -34.34,-92.5 -6.62,-28.6 -11.41,-59.9 -15.05,-91.5 -7.29,-63.2 -11.15,-138.2 -13.25,-215.9 -2.74,-101.2 -2.61,-214 -2.2,-320.1 h -241.3 c -449.25,0 -892.93,99.6 -1299.09,291.6 l -59.08,27.9 v 0.5 h -320 v -1120 c 0,-265.1 -214.9,-480 -480,-480 h -160 v -320 h 160 c 163.05,0 314.71,48.8 441.18,132.6 l 245.69,-245.7 226.26,226.3 -245.67,245.7 c 55.61,83.9 95.8,179 116.53,281.1 H 8000 v 320 h -320 v 606.8 c 427.54,-189 890.11,-286.8 1358.17,-286.8 H 9280 v -1920 h -640 v -320 h 960 v 2172.2"
           style="fill:#2f444e;fill-opacity:1;fill-rule:evenodd;stroke:none"
           transform="matrix(0.13333333,0,0,-0.13333333,0,4437.3333)" />
      </g>
      <g
         id="g45"
         transform="translate(40.339395,-290.44365)">
        <path
           id="path17"
           d="m 14540,16320 h 500 v 320 h 640 v 480 h 1920 l 480,-320 v -1521.3 c -362.4,-44.5 -837.1,-78.7 -1440,-78.7 -1725,0 -2400,280 -2400,280 l 300,840"
           style="fill:#acbdc4;fill-opacity:1;fill-rule:nonzero;stroke:none"
           transform="matrix(0.13333333,0,0,-0.13333333,0,4437.3333)" />
        <path
           id="path18"
           d="m 14720,16640 h -640 v -320 h 311.3 l -305.7,-917.1 118.5,-63.8 c 112.4,-60.5 357.7,-133.5 744.9,-192.3 393.7,-59.7 948.5,-106.8 1691,-106.8 741.6,0 1295.2,40.3 1687.6,91.3 386.5,50.3 629.2,112.5 739.5,163.4 l 130,60 -165.3,495.9 -159.5,-53.2 -72.3,202.6 -720,160 v 480 h -480 c 0,-353.5 -716.3,-640 -1600,-640 h -1378 l 98,294 v 346"
           style="fill:#536f7f;fill-opacity:1;fill-rule:nonzero;stroke:none"
           transform="matrix(0.13333333,0,0,-0.13333333,0,4437.3333)" />
        <path
           id="path19"
           d="m 16000,17280 v 960 h 320 v -960 h 640 v 640 h 320 v -640 h 320 v 640 h 320 v -960 h 640 v -320 h -320 v -320 h 635.3 l 321.8,-965.3 -130,-60 c -139.9,-64.5 -504.8,-151.5 -1133.4,-205.3 l -27.4,318.8 c 443.2,38 730.9,91.3 891.3,133.1 l -152.9,458.7 H 17920 v 640 h -320 v 320 h -2240 v 320 h 640"
           style="fill:#2f444e;fill-opacity:1;fill-rule:evenodd;stroke:none"
           transform="matrix(0.13333333,0,0,-0.13333333,0,4437.3333)" />
      </g>
      <g
         id="g46"
         transform="translate(274.30789,-153.2897)">
        <path
           id="path20"
           d="m 23680,15520 c 265.1,0 480,214.9 480,480 0,265.1 -214.9,480 -480,480 -265.1,0 -480,-214.9 -480,-480 0,-265.1 214.9,-480 480,-480 z m 3360,1280 v -960 h -160 l -960,960 -1520,-320 -240,1280 h 1920 c 530.2,0 960,-429.8 960,-960"
           style="fill:#acbdc4;fill-opacity:1;fill-rule:nonzero;stroke:none"
           transform="matrix(0.13333333,0,0,-0.13333333,0,4437.3333)" />
        <path
           id="path21"
           d="m 23680,15680 c 176.7,0 320,143.3 320,320 0,176.7 -143.3,320 -320,320 -176.7,0 -320,-143.3 -320,-320 0,-176.7 143.3,-320 320,-320 z m 1265.5,1280 c 883.7,0 1600,268.6 1600,600 0,13.4 -1.1,26.8 -3.5,40 h 83.5 l 560,-720 v -1200 h -320 l -960,960 -1400,-320 -1.1,5.4 -180.6,-40.1 -302.2,1360 312.4,69.4 161.6,-727.3 c 142.7,-17.8 293.7,-27.4 449.9,-27.4 z M 23680,15360 c 353.5,0 640,286.5 640,640 0,353.5 -286.5,640 -640,640 -353.5,0 -640,-286.5 -640,-640 0,-353.5 286.5,-640 640,-640"
           style="fill:#536f7f;fill-opacity:1;fill-rule:evenodd;stroke:none"
           transform="matrix(0.13333333,0,0,-0.13333333,0,4437.3333)" />
        <path
           id="path22"
           d="M 23960.5,17920 H 26320 c 481.7,0 873,-387 879.9,-867.1 l 881,222.2 79.1,-315.1 -960,-237.1 V 15680 h -320 v 962.2 l -3160.9,-797.3 -78.2,310.2 3239.1,817.1 v 67.8 c 0,309.3 -250.7,560 -560,560 h -2288.3 l -71.2,320"
           style="fill:#2f444e;fill-opacity:1;fill-rule:evenodd;stroke:none"
           transform="matrix(0.13333333,0,0,-0.13333333,0,4437.3333)" />
      </g>
      <path
         id="path23"
         d="M 7563.12,10240 9920,9240.6 9388.28,7986.7 C 9601.23,7933.5 9760,7726.8 9760,7480 c 0,-287.2 -214.91,-520 -480,-520 -265.1,0 -480,232.8 -480,520 0,214.9 120.33,399.4 291.99,478.6 L 6739.4,8297.4 7563.12,10240"
         style="fill:#536f7f;fill-opacity:1;fill-rule:nonzero;stroke:none"
         transform="matrix(0.13333333,0,0,-0.13333333,0,4437.3333)" />
      <path
         id="path24"
         d="m 9280,6880 c 0,-972 -787.99,-1760 -1760,-1760 -972.03,0 -1760,788 -1760,1760 0,683.9 390.13,1276.8 960,1568.1 120,-128.1 511.92,-288.1 800,-288.1 508.26,0 1000,-40 1287.48,-80 C 9100.63,7765.6 9280,7343.7 9280,6880"
         style="fill:#f8a499;fill-opacity:1;fill-rule:nonzero;stroke:none"
         transform="matrix(0.13333333,0,0,-0.13333333,0,4437.3333)" />
      <path
         id="path25"
         d="m 6080,6880 c 0,-795.3 644.7,-960 1440,-960 795.28,0 1440,164.7 1440,960 0,795.3 -644.72,1440 -1440,1440 -795.3,0 -1440,-644.7 -1440,-1440"
         style="fill:#fbcba8;fill-opacity:1;fill-rule:nonzero;stroke:none"
         transform="matrix(0.13333333,0,0,-0.13333333,0,4437.3333)" />
      <path
         id="path26"
         d="m 6755.85,6359.3 c -154.87,67.4 -286.3,87.5 -407.91,62.4 -117.04,-24.1 -205.89,-87.9 -269.76,-133.8 l -10.82,-7.7 c -69.65,-49.8 -123.63,-86.1 -197.43,-105.4 -72.21,-18.9 -178.42,-24.9 -348.54,19.9 L 5440,5885.3 c 321.68,-84.7 498.48,-125.3 760.28,-125.3 161.23,0 318.5,53.6 435.85,121.5 43.42,25.1 84.61,54 120.22,85.9 22.14,-30.1 47.48,-59.2 74.66,-86.4 95.79,-96 233.84,-188.5 389.57,-230.2 206.57,-55.4 380.4,-53.7 602.5,-51.6 55.11,0.5 113.19,1.1 175.48,0.8 l 1.43,320 c -176.85,0.8 -279.97,32.8 -346.89,68.9 -67.99,36.7 -112,84 -167.75,146.9 l -7.98,9 c -51.62,58.5 -122.75,139.1 -230.77,189.4 -118.18,54.9 -259.56,66 -442.02,33.7 l -48.73,-8.6"
         style="fill:#ffffff;fill-opacity:1;fill-rule:evenodd;stroke:none"
         transform="matrix(0.13333333,0,0,-0.13333333,0,4437.3333)" />
      <path
         id="path27"
         d="m 7840,6720 c 88.36,0 160,71.6 160,160 0,88.4 -71.64,160 -160,160 -88.37,0 -160,-71.6 -160,-160 0,-88.4 71.63,-160 160,-160 z m -1280,320 c 88.36,0 160,71.6 160,160 0,88.4 -71.64,160 -160,160 -88.37,0 -160,-71.6 -160,-160 0,-88.4 71.63,-160 160,-160 z m 2559.57,1126.3 505.45,1200.8 294.94,-124.2 -500.44,-1188.8 c 11.55,-5.6 22.85,-11.2 33.92,-17 169.97,-87.8 288.98,-194.4 364.68,-315.3 C 9894.17,7600.2 9920,7474.7 9920,7360 9920,7140.5 9808.51,6977.9 9679.95,6875.1 9556.45,6776.3 9402.11,6720 9280,6720 h -6.81 c 9.61,105.2 9.76,212.3 -0.2,320 h 7.01 c 37.88,0 123.54,23.7 200.04,84.9 71.44,57.2 119.96,134.6 119.96,235.1 0,65.3 -14.18,129.7 -53.13,192 -39.3,62.8 -110.3,133.7 -240.32,200.9 C 9041.08,7890 8552.32,8000 7680,8000 7104.52,8000 6701.45,8182.3 6441.86,8441.9 6185.3,8698.4 6080,9019.8 6080,9280 h 320 c 0,-179.8 74.69,-418.4 268.13,-611.9 C 6858.54,8477.7 7175.46,8320 7680,8320 c 639.58,0 1104.51,-57.1 1439.57,-153.7"
         style="fill:#2f444e;fill-opacity:1;fill-rule:nonzero;stroke:none"
         transform="matrix(0.13333333,0,0,-0.13333333,0,4437.3333)" />
      <path
         id="path28"
         d="m 16240.2,9969.4 -1280,-738.5 C 14712.6,9088 14560,8823.8 14560,8537.9 V 6822.1 c 0,-286 152.6,-550.1 400.2,-693 l 1280,-738.5 c 247.4,-142.7 552.2,-142.7 799.6,0 l 1280,738.5 c 247.6,142.9 400.2,407 400.2,693 v 1715.8 c 0,285.9 -152.6,550.1 -400.2,693 l -1280,738.5 c -247.4,142.7 -552.2,142.7 -799.6,0"
         style="fill:#ffffff;fill-opacity:1;fill-rule:nonzero;stroke:none"
         transform="matrix(0.13333333,0,0,-0.13333333,0,4437.3333)" />
      <path
         id="path29"
         d="m 15040.2,9092.3 399.8,230.6 -160,277.2 -399.7,-230.6 C 14583.1,9198 14400,8881 14400,8537.9 V 6822.1 c 0,-343.1 183.1,-660.1 480.3,-831.6 l 1280,-738.4 c 296.9,-171.3 662.5,-171.3 959.4,0 l 1280,738.4 c 297.2,171.5 480.3,488.5 480.3,831.6 V 7040 h -280 v 1208.6 c 0,245.7 -265.4,399.7 -478.8,277.8 l -1158.7,-662.1 c -199.4,-114 -322.5,-326 -322.5,-555.7 v -222.4 c 0,-761.3 -805,-1234.3 -1461,-898.6 l -138.8,80.1 c -198.1,114.3 -320.2,325.6 -320.2,554.4 v 1715.8 c 0,228.8 122.1,440.1 320.2,554.4"
         style="fill:#acbdc4;fill-opacity:1;fill-rule:nonzero;stroke:none"
         transform="matrix(0.13333333,0,0,-0.13333333,0,4437.3333)" />
      <path
         id="path30"
         d="m 16264.7,6519.8 c -89.8,159.5 -257.2,232.8 -373.8,163.8 -116.6,-69.1 -138.4,-254.4 -48.6,-413.9 89.8,-159.5 257.1,-232.8 373.7,-163.7 116.7,69 138.4,254.3 48.7,413.8 z m 783.5,-418.7 c 99,-56.1 241,3.5 317.2,133.1 76.1,129.6 57.7,280.2 -41.3,336.4 -99,56.1 -241,-3.5 -317.1,-133.1 -76.2,-129.6 -57.8,-280.2 41.2,-336.4 z m 689.7,1173.6 c -98.9,56.1 -240.9,-3.4 -317.1,-133.1 -76.2,-129.6 -57.7,-280.2 41.3,-336.3 98.9,-56.1 240.9,3.4 317.1,133.1 76.2,129.6 57.7,280.2 -41.3,336.3 z m 413.9,704.2 c -99,56.1 -241,-3.5 -317.2,-133.1 -76.1,-129.6 -57.7,-280.2 41.3,-336.4 99,-56.1 241,3.5 317.1,133.1 76.2,129.6 57.8,280.2 -41.2,336.4 z m -3056.5,-418.7 c 89.8,-159.5 257.2,-232.8 373.8,-163.8 116.6,69.1 138.4,254.4 48.6,413.9 -89.8,159.5 -257.1,232.8 -373.7,163.7 -116.7,-69.1 -138.4,-254.3 -48.7,-413.8 z m 24.7,1578.1 -160,277.2 1200.3,692.4 c 296.8,171.3 662.5,171.3 959.4,0 l 1280,-738.4 C 18696.9,9198 18880,8881 18880,8537.9 V 6822.1 c 0,-343.1 -183.1,-660.1 -480.3,-831.6 l -79.8,-46 -159.8,277.2 79.7,46 c 198.1,114.3 320.2,325.6 320.2,554.4 v 1715.8 c 0,228.8 -122.1,440.1 -320.2,554.4 l -1280,738.5 c -197.9,114.2 -441.7,114.2 -639.6,0 L 15120,9138.3"
         style="fill:#2f444e;fill-opacity:1;fill-rule:nonzero;stroke:none"
         transform="matrix(0.13333333,0,0,-0.13333333,0,4437.3333)" />
      <path
         id="path31"
         d="m 17280,8880 c 0,-220.9 -286.5,-320 -640,-320 -353.5,0 -640,99.1 -640,320 0,220.9 286.5,400 640,400 353.5,0 640,-179.1 640,-400"
         style="fill:#d9225b;fill-opacity:1;fill-rule:nonzero;stroke:none"
         transform="matrix(0.13333333,0,0,-0.13333333,0,4437.3333)" />
      <path
         id="path32"
         d="m 17264.9,8966.8 c 0.1,-2.2 0.1,-4.5 0.1,-6.8 0,-88.4 -279.8,-160 -625,-160 -345.2,0 -625,71.6 -625,160 0,2.2 0,4.5 0.1,6.7 -9.9,-27.9 -15.1,-56.9 -15.1,-86.7 0,-220.9 286.5,-400 640,-400 353.5,0 640,179.1 640,400 0,29.8 -5.2,58.9 -15.1,86.8"
         style="fill:#f2514f;fill-opacity:1;fill-rule:nonzero;stroke:none"
         transform="matrix(0.13333333,0,0,-0.13333333,0,4437.3333)" />
      <path
         id="path33"
         d="m 23520,9280 c 0,265.1 214.9,480 480,480 h 3200 c 265.1,0 480,-214.9 480,-480 V 6080 c 0,-265.1 -214.9,-480 -480,-480 h -3200 c -265.1,0 -480,214.9 -480,480 v 3200"
         style="fill:#ffffff;fill-opacity:1;fill-rule:nonzero;stroke:none"
         transform="matrix(0.13333333,0,0,-0.13333333,0,4437.3333)" />
      <path
         id="path34"
         d="m 23680,9280 c 0,176.7 143.3,320 320,320 h 640 v 320 h -640 c -353.5,0 -640,-286.5 -640,-640 V 6080 c 0,-353.5 286.5,-640 640,-640 h 2560 v 160 h 640 c 265.1,0 480,214.9 480,480 v 1600 h -160 c 0,-883.7 -1146.2,-1600 -2560,-1600 -706.9,0 -1279.9,214.9 -1280,479.9 V 9280"
         style="fill:#acbdc4;fill-opacity:1;fill-rule:nonzero;stroke:none"
         transform="matrix(0.13333333,0,0,-0.13333333,0,4437.3333)" />
      <path
         id="path35"
         d="m 24640,6400 h 1920 v -320 h -1920 v 320"
         style="fill:#f5f014;fill-opacity:1;fill-rule:nonzero;stroke:none"
         transform="matrix(0.13333333,0,0,-0.13333333,0,4437.3333)" />
      <path
         id="path36"
         d="m 24958.5,6080 c -109.9,0 -216.7,5.3 -318.5,15.1 V 6080 Z m 1601.5,320 v -320 h -1598.4 c 575.8,0.2 1107.1,119.3 1534.7,320 h 63.7"
         style="fill:#f7ca1b;fill-opacity:1;fill-rule:nonzero;stroke:none"
         transform="matrix(0.13333333,0,0,-0.13333333,0,4437.3333)" />
      <path
         id="path37"
         d="m 24640,9280 h 1920 v -320 h -1920 v 320"
         style="fill:#d9225b;fill-opacity:1;fill-rule:nonzero;stroke:none"
         transform="matrix(0.13333333,0,0,-0.13333333,0,4437.3333)" />
      <path
         id="path38"
         d="m 24000,8640 h 320 V 6720 h -320 v 1920"
         style="fill:#32937b;fill-opacity:1;fill-rule:nonzero;stroke:none"
         transform="matrix(0.13333333,0,0,-0.13333333,0,4437.3333)" />
      <path
         id="path39"
         d="m 26880,8640 h 320 V 6720 h -320 v 1920"
         style="fill:#4470c0;fill-opacity:1;fill-rule:nonzero;stroke:none"
         transform="matrix(0.13333333,0,0,-0.13333333,0,4437.3333)" />
      <path
         id="path40"
         d="m 26013.7,7680 -413.7,-413.7 226.3,-226.3 413.7,413.7 z m -640,640 -413.7,-413.7 226.3,-226.3 413.7,413.7 z M 27200,5760 h -320 v 640 h 640 v -320 c 0,-176.7 -143.3,-320 -320,-320 z m 320,2880 V 6720 h -640 v 1920 z m 0,640 v -320 h -640 v 640 h 320 c 176.7,0 320,-143.3 320,-320 z m -2880,320 h 1920 v -640 h -1920 z m 0,-960 V 6720 h 1920 v 1920 z m -320,1280 h 2880 c 353.5,0 640,-286.5 640,-640 V 6080 c 0,-353.5 -286.5,-640 -640,-640 h -640 v 960 h -1920 v -640 h -320 v 640 h -640 v 320 h 640 v 1920 h -640 v 320 h 640 v 960"
         style="fill:#2f444e;fill-opacity:1;fill-rule:evenodd;stroke:none"
         transform="matrix(0.13333333,0,0,-0.13333333,0,4437.3333)" />
    </g>
  </g>
</svg>
